<svg xmlns="http://www.w3.org/2000/svg" xmlns:xlink="http://www.w3.org/1999/xlink" preserveAspectRatio="xMidYMid" width="186" height="151" viewBox="0 0 186 151">
  <defs>
    <style>
      .cls-1 {
        fill: #00e1bf;
        fill-rule: evenodd;
      }
    </style>
  </defs>
  <path d="M181.469,9.094 C178.966,9.094 176.937,7.058 176.937,4.547 C176.937,2.036 178.966,-0.000 181.469,-0.000 C183.971,-0.000 186.000,2.036 186.000,4.547 C186.000,7.058 183.971,9.094 181.469,9.094 ZM146.422,148.531 C143.911,148.531 141.875,146.496 141.875,143.984 C141.875,141.473 143.911,139.438 146.422,139.438 C148.933,139.438 150.969,141.473 150.969,143.984 C150.969,146.496 148.933,148.531 146.422,148.531 ZM136.844,49.844 C131.338,49.844 126.875,45.367 126.875,39.844 C126.875,34.321 131.338,29.844 136.844,29.844 C142.349,29.844 146.812,34.321 146.812,39.844 C146.812,45.367 142.349,49.844 136.844,49.844 ZM135.844,66.844 C141.349,66.844 145.812,71.321 145.812,76.844 C145.812,82.367 141.349,86.844 135.844,86.844 C130.338,86.844 125.875,82.367 125.875,76.844 C125.875,71.321 130.338,66.844 135.844,66.844 ZM84.688,145.000 C66.911,145.000 52.500,130.540 52.500,112.703 C52.500,94.866 66.911,80.406 84.688,80.406 C102.464,80.406 116.875,94.866 116.875,112.703 C116.875,130.540 102.464,145.000 84.688,145.000 ZM80.234,66.844 C70.716,66.844 63.000,59.107 63.000,49.563 C63.000,40.018 70.716,32.281 80.234,32.281 C89.753,32.281 97.469,40.018 97.469,49.563 C97.469,59.107 89.753,66.844 80.234,66.844 ZM34.047,91.844 C28.533,91.844 24.063,87.367 24.063,81.844 C24.063,76.321 28.533,71.844 34.047,71.844 C39.561,71.844 44.031,76.321 44.031,81.844 C44.031,87.367 39.561,91.844 34.047,91.844 ZM34.219,141.000 C34.219,146.523 29.756,151.000 24.250,151.000 C18.744,151.000 14.281,146.523 14.281,141.000 C14.281,135.477 18.744,131.000 24.250,131.000 C29.756,131.000 34.219,135.477 34.219,141.000 ZM4.531,48.531 C2.029,48.531 -0.000,46.496 -0.000,43.984 C-0.000,41.473 2.029,39.437 4.531,39.437 C7.034,39.437 9.062,41.473 9.062,43.984 C9.062,46.496 7.034,48.531 4.531,48.531 ZM136.422,114.437 C138.933,114.437 140.969,116.473 140.969,118.984 C140.969,121.496 138.933,123.531 136.422,123.531 C133.911,123.531 131.875,121.496 131.875,118.984 C131.875,116.473 133.911,114.437 136.422,114.437 Z" class="cls-1"/>
</svg>
