<?xml version="1.0" encoding="utf-8"?>
<!-- Generator: Adobe Illustrator 18.0.0, SVG Export Plug-In . SVG Version: 6.00 Build 0)  -->
<!DOCTYPE svg PUBLIC "-//W3C//DTD SVG 1.1//EN" "http://www.w3.org/Graphics/SVG/1.1/DTD/svg11.dtd">
<svg version="1.1" id="Layer_2" xmlns="http://www.w3.org/2000/svg" xmlns:xlink="http://www.w3.org/1999/xlink" x="0px" y="0px"
	 viewBox="0 0 95.9 139.2" enable-background="new 0 0 95.9 139.2" xml:space="preserve">
<path fill="none" stroke="#fff" stroke-linecap="round" stroke-linejoin="round" stroke-miterlimit="10" d="M68.6,80.7
	c0,0-16.3,0.8-16.3,20.5c0,5.5,17.9,17.9,17.9,17.9l-17.4,19.5l5.4,0l21.2-21.2l-8.8-7.1c0,0-5.5-3.8,3.5-10.3s10.5-14.9,4-21.1
	S51.5,52.6,51.5,52.6s23-1.3,13.9-24.6"/>
<path fill="none" stroke="#fff" stroke-linecap="round" stroke-linejoin="round" stroke-miterlimit="10" d="M22.9,64.3
	c-1.1-3.8-1.2-8.1,0.3-11.7c5.5-13.5,32.9-16.8,27-16.4s-8.1-2.6-8.1-2.6s-6.4,0.1-8-0.4S32.2,26,32.2,26l8.3-0.9
	c0,0,0.2-0.1,0.5-0.7s5.4-3.8,5.9-4.2c0.5-0.4,7.4-0.4,8-0.1c1.6,0.8,4,2.1,4,2.1l1.1-0.4c0,0,14.4-0.9,12.9,1.9
	c-2.8,5-8.8,4.4-11.5,4.1"/>
<path fill="none" stroke="#fff" stroke-linecap="round" stroke-linejoin="round" stroke-miterlimit="10" d="M54.3,90.8
	c-12-4.6-21-10.8-26.5-17.6"/>
<path fill="none" stroke="#fff" stroke-linecap="round" stroke-linejoin="round" stroke-miterlimit="10" d="M40.5,84
	c0,0-11.6,8.9-5.6,20.1c4,7.5,16.9,14.9,16.9,14.9l-17.4,19.7l4.7,0l21.4-21.4l-9.4-7.9c0,0-2.4-2.9,1.8-5.6"/>
<path fill="none" stroke="#fff" stroke-linecap="round" stroke-linejoin="round" stroke-miterlimit="10" d="M43.3,58.9
	c0,2,2.2,14.2-14.9,14.2c-17.9,0-28,0-28,0v-3.8l22.4-5l-12.4-9.6l0-5.7l12.8,3.5"/>
<path fill="none" stroke="#fff" stroke-miterlimit="10" d="M52.5,20c0,0,7.1-10.2,21.9-13.8S87.6,1.3,88,0.6
	c0.5-0.7,0,4.9-10.7,7.2S57.5,21.4,57.5,21.4"/>
<path fill="none" stroke="#fff" stroke-miterlimit="10" d="M52.5,20c0,0,7.1-10.2,21.9-13.8S87.6,1.3,88,0.6
	c0.5-0.7,0,4.9-10.7,7.2S57.5,21.4,57.5,21.4"/>
<path fill="none" stroke="#fff" stroke-miterlimit="10" d="M95.3,80.4c-1.3,0.8-2.8,0.7-4.4,0.5c-1.5-0.1-3.1-0.3-5,0.2
	c-1.8,0.5-3,1.7-3.4,3.7c-0.1,0.6-0.1,1.2-0.1,1.7c0.9-1,2.8-2.1,7.5-2c2.1,0.1,3.6-0.4,4.5-1.5C95.2,82.1,95.3,81.1,95.3,80.4z"/>
<line fill="none" stroke="#fff" stroke-linecap="round" stroke-linejoin="round" stroke-miterlimit="10" x1="56.7" y1="64.6" x2="62.6" y2="70.5"/>
<line fill="none" stroke="#fff" stroke-linecap="round" stroke-linejoin="round" stroke-miterlimit="10" x1="64.3" y1="72.3" x2="65.9" y2="73.9"/>
<line fill="none" stroke="#fff" stroke-linecap="round" stroke-linejoin="round" stroke-miterlimit="10" x1="67.8" y1="75.8" x2="68" y2="76"/>
</svg>
