<?xml version="1.0" encoding="utf-8"?>
<!-- Generator: Adobe Illustrator 18.0.0, SVG Export Plug-In . SVG Version: 6.00 Build 0)  -->
<!DOCTYPE svg PUBLIC "-//W3C//DTD SVG 1.1//EN" "http://www.w3.org/Graphics/SVG/1.1/DTD/svg11.dtd">
<svg version="1.1" id="Layer_2" xmlns="http://www.w3.org/2000/svg" xmlns:xlink="http://www.w3.org/1999/xlink" x="0px" y="0px"
	 viewBox="0 0 84.7 124.3" enable-background="new 0 0 84.7 124.3" xml:space="preserve">
<polyline fill="none" stroke="#fff" stroke-linecap="round" stroke-linejoin="round" stroke-miterlimit="10" points="84.2,79.9 
	84.1,81.9 80.5,79 81.3,73.3 64.8,90.5 55.8,86.9 "/>
<polyline fill="none" stroke="#fff" stroke-linecap="round" stroke-linejoin="round" stroke-miterlimit="10" points="62.2,71.6 
	67.5,77.2 68.4,82.1 81.3,69 81.3,58.5 83.9,56.7 "/>
<g>
	<path fill="none" stroke="#fff" stroke-linecap="round" stroke-linejoin="round" stroke-miterlimit="10" d="M34.7,74.4
		c0,0-11.3,11.7-25.9,24.5s-5.3,20.9-5.3,20.9s9.3-8.7,25.2-23.7c15.7-14.7,20.7-22.5,20.8-32.2S45.1,38,45.1,38L16,64.5
		c0,0-4.7,5.1-0.4,14.1"/>
	<path fill="none" stroke="#fff" stroke-linecap="round" stroke-linejoin="round" stroke-miterlimit="10" d="M36.5,60.4l-30,27.3
		c0,0-5.2,4.2-0.7,13.5"/>
</g>
<path fill="none" stroke="#fff" stroke-linejoin="round" stroke-miterlimit="10" d="M66.1,15l-15.2,0c0,0-11.9,18.2,15.2,18.2
	c0,0,17.3,2.3-4.8,39.7c-6.4,10.8-8,21.3-8,21.3l-9.7,0.7l-4.2,9l5.8,17.3l13.3,0.2l2.2,2.5l-19.7,0l-6.5,0l-5.7,0l4.1-4.6l7.2,1.7
	l-3.9-17l-4,5.3l-3.6-2.8l0.1-10.3"/>
<path fill="none" stroke="#fff" stroke-miterlimit="10" d="M62.2,24.5c0,0,3.9-0.4,5.8,0.4c0.5,0.2,1.1,0.6,1.5,1
	c0,0,1.3-6.8-3.2-6.8C61.7,19.2,62.2,24.5,62.2,24.5z"/>
<path fill="none" stroke="#fff" stroke-miterlimit="10" d="M34.2,30.5c0,0,3,11.4-0.8,18.3"/>
<path fill="none" stroke="#fff" stroke-linejoin="round" stroke-miterlimit="10" d="M69.1,41.4c0,0.9-0.7,1.7-1.7,1.7
	c-0.9,0-1.7-0.7-1.7-1.7"/>
<path fill="none" stroke="#fff" stroke-linejoin="round" stroke-miterlimit="10" d="M63.4,49.8c0,0.9-0.7,1.7-1.7,1.7
	c-0.9,0-1.7-0.7-1.7-1.7"/>
<path fill="none" stroke="#fff" stroke-linejoin="round" stroke-miterlimit="10" d="M56.4,41.7c0,0.9-0.7,1.7-1.7,1.7
	s-1.7-0.7-1.7-1.7"/>
<path fill="none" stroke="#fff" stroke-linejoin="round" stroke-miterlimit="10" d="M58.3,57.3c0,0.9-0.7,1.7-1.7,1.7
	s-1.7-0.7-1.7-1.7"/>
<path fill="none" stroke="#fff" stroke-miterlimit="10" d="M51.3,29.7L46.2,27l-6.7,5.2l-3.3-3.5l-5.8,4.9c0,0-4.6-22,13.9-28.3
	c2.5-0.9,4.4-1.1,7.8-1.1c1.1,0,1.1-3.5,1.1-3.5c5.6,2.1,7.3,4.1,8.3,5c4,3.7,4.2,7.2,4.4,8.8C66,15,66,15.2,66,15.2l0.5,3.7"/>
<path fill="none" stroke="#fff" stroke-miterlimit="10" d="M67.4,24.8c0,0-2,3.1-3.7,3.1c0,0,0.7,1.2,5,6.6"/>
<path fill="none" stroke="#fff" stroke-miterlimit="10" d="M62.2,24.5c0,0,0,0.9,1.5,3.3"/>
</svg>
