<?xml version="1.0" encoding="utf-8"?>
<!-- Generator: Adobe Illustrator 18.0.0, SVG Export Plug-In . SVG Version: 6.00 Build 0)  -->
<!DOCTYPE svg PUBLIC "-//W3C//DTD SVG 1.1//EN" "http://www.w3.org/Graphics/SVG/1.1/DTD/svg11.dtd">
<svg version="1.1" id="Layer_1" xmlns="http://www.w3.org/2000/svg" xmlns:xlink="http://www.w3.org/1999/xlink" x="0px" y="0px"
	 viewBox="0 0 174.1 174.1" enable-background="new 0 0 174.1 174.1" xml:space="preserve">
<g>
	<circle fill="none" stroke="#fff" stroke-width="2" stroke-miterlimit="10" cx="87.1" cy="87.1" r="86.1"/>
	<g>
		<defs>
			<circle id="SVGID_3_" cx="87.1" cy="87.1" r="86.1"/>
		</defs>
		<clipPath id="SVGID_1_">
			<use xlink:href="#SVGID_3_"  overflow="visible"/>
		</clipPath>
		<g clip-path="url(#SVGID_1_)">
			<polyline fill="none" stroke="#fff" stroke-width="2" stroke-linejoin="round" stroke-miterlimit="10" points="161.6,181.7 
				161.4,185.5 154.4,179.9 156,168.7 123.6,202.5 105.8,195.4 			"/>
			<polyline fill="none" stroke="#fff" stroke-width="2" stroke-linejoin="round" stroke-miterlimit="10" points="118.4,165.2 
				128.8,176.3 130.6,185.9 156,160.2 155.8,139.6 161.1,136 			"/>
			<g>
				<path fill="none" stroke="#fff" stroke-width="2" stroke-linejoin="round" stroke-miterlimit="10" d="M64.3,170.9
					c0,0-22.2,22.9-51,48.1S3,260,3,260s18.2-17.2,49.6-46.5c30.8-28.8,40.7-44.2,40.9-63.3c0.2-19.2-8.7-50.9-8.7-50.9l-57.2,52.2
					c0,0-9.3,10-0.7,27.8"/>
				<path fill="none" stroke="#fff" stroke-width="2" stroke-linejoin="round" stroke-miterlimit="10" d="M67.8,143.3L9,197
					c0,0-10.2,8.3-1.4,26.6"/>
			</g>
			<path fill="none" stroke="#fff" stroke-width="2" stroke-linejoin="round" stroke-miterlimit="10" d="M126.1,54.2l-29.8,0
				c0,0-23.3,35.8,29.8,35.8c0,0,34,4.6-9.5,77.9c-12.6,21.3-15.7,41.9-15.7,41.9l-19,1.3l-8.3,17.7L85,262.7l26.2,0.3l4.3,4.9
				l-38.6-0.1L64,267.9l-11.2,0l8.1-9l14.1,3.4l-7.7-33.5l-7.9,10.5l-7-5.5l0.2-20.3"/>
			<path fill="none" stroke="#fff" stroke-width="2" stroke-linejoin="round" stroke-miterlimit="10" d="M118.4,72.9
				c0,0,7.7-0.8,11.3,0.7c1,0.5,2.1,1.1,3,2c0,0,2.6-13.3-6.3-13.3C117.5,62.3,118.4,72.9,118.4,72.9z"/>
			<path fill="none" stroke="#fff" stroke-width="2" stroke-linejoin="round" stroke-miterlimit="10" d="M63.3,84.7
				c0,0,5.9,22.4-1.6,36"/>
			<path fill="none" stroke="#fff" stroke-width="2" stroke-linejoin="round" stroke-miterlimit="10" d="M131.9,106.1
				c0,1.8-1.5,3.3-3.3,3.3c-1.8,0-3.3-1.5-3.3-3.3"/>
			<path fill="none" stroke="#fff" stroke-width="2" stroke-linejoin="round" stroke-miterlimit="10" d="M120.8,122.4
				c0,1.8-1.5,3.3-3.3,3.3c-1.8,0-3.3-1.5-3.3-3.3"/>
			<path fill="none" stroke="#fff" stroke-width="2" stroke-linejoin="round" stroke-miterlimit="10" d="M107,106.6
				c0,1.8-1.5,3.3-3.3,3.3c-1.8,0-3.3-1.5-3.3-3.3"/>
			<path fill="none" stroke="#fff" stroke-width="2" stroke-linejoin="round" stroke-miterlimit="10" d="M110.7,137.3
				c0,1.8-1.5,3.3-3.3,3.3c-1.8,0-3.3-1.5-3.3-3.3"/>
			<path fill="none" stroke="#fff" stroke-width="2" stroke-linejoin="round" stroke-miterlimit="10" d="M97,83l-10-5.2L73.9,88
				l-6.4-6.9l-11.3,9.7c0,0-9.1-43.2,27.3-55.5c5-1.7,8.7-2.2,15.3-2.2c2.2,0,2.2-6.9,2.2-6.9c11,4.1,14.3,8.1,16.2,9.9
				c7.8,7.3,8.2,14.1,8.6,17.3c0.1,0.8,0.1,1.3,0.1,1.3l1,7.2"/>
			<path fill="none" stroke="#fff" stroke-width="2" stroke-linejoin="round" stroke-miterlimit="10" d="M128.7,73.3
				c0,0-3.9,6.1-7.3,6.1c0,0,1.3,2.4,9.8,13"/>
			<path fill="none" stroke="#fff" stroke-width="2" stroke-linejoin="round" stroke-miterlimit="10" d="M118.4,72.9
				c0,0,0,1.8,3,6.5"/>
		</g>
		
			<use xlink:href="#SVGID_3_"  overflow="visible" fill="none" stroke="#fff" stroke-width="2" stroke-linejoin="round" stroke-miterlimit="10"/>
	</g>
</g>
</svg>
