<?xml version="1.0" encoding="utf-8"?>
<!-- Generator: Adobe Illustrator 18.0.0, SVG Export Plug-In . SVG Version: 6.00 Build 0)  -->
<!DOCTYPE svg PUBLIC "-//W3C//DTD SVG 1.1//EN" "http://www.w3.org/Graphics/SVG/1.1/DTD/svg11.dtd">
<svg version="1.1" id="Layer_1" xmlns="http://www.w3.org/2000/svg" xmlns:xlink="http://www.w3.org/1999/xlink" x="0px" y="0px"
	 viewBox="-234.3 357.4 58.5 80" enable-background="new -234.3 357.4 58.5 80" xml:space="preserve">
<path fill="#00e1bf" d="M-179.5,357.4h-51.1c-2,0-3.7,1.6-3.7,3.7v72.6c0,2,1.6,3.7,3.7,3.7h51.1c2,0,3.7-1.6,3.7-3.7V361
	C-175.9,359-177.5,357.4-179.5,357.4z M-177.1,433.6c0,1.3-1.1,2.4-2.4,2.4h-51.1c-1.4,0-2.4-1.1-2.4-2.4V361c0-1.3,1.1-2.4,2.4-2.4
	h51.1c1.3,0,2.4,1.1,2.4,2.4V433.6z M-188.1,413.9c0,0.3-0.3,0.6-0.6,0.6H-210c-0.3,0-0.6-0.3-0.6-0.6s0.3-0.6,0.6-0.6h21.4
	C-188.4,413.3-188.1,413.6-188.1,413.9z M-188.1,425c0,0.3-0.3,0.6-0.6,0.6H-210c-0.3,0-0.6-0.3-0.6-0.6c0-0.3,0.3-0.6,0.6-0.6h21.4
	C-188.4,424.4-188.1,424.6-188.1,425z M-188.1,403c0,0.3-0.3,0.6-0.6,0.6H-210c-0.3,0-0.6-0.3-0.6-0.6c0-0.3,0.3-0.6,0.6-0.6h21.4
	C-188.4,402.4-188.1,402.7-188.1,403z M-188.1,392.1c0,0.3-0.3,0.6-0.6,0.6H-210c-0.3,0-0.6-0.3-0.6-0.6c0-0.3,0.3-0.6,0.6-0.6h21.4
	C-188.4,391.5-188.1,391.8-188.1,392.1z M-210.7,381.2c0-0.3,0.3-0.6,0.6-0.6h21.2c0.3,0,0.6,0.3,0.6,0.6c0,0.3-0.3,0.6-0.6,0.6
	H-210C-210.4,381.8-210.7,381.5-210.7,381.2z M-210.7,370.3c0-0.3,0.3-0.6,0.6-0.6h21.2c0.3,0,0.6,0.3,0.6,0.6
	c0,0.3-0.3,0.6-0.6,0.6H-210C-210.4,370.9-210.7,370.6-210.7,370.3z M-217.7,367.2c0.2,0.2,0.2,0.6,0,0.9l-4.6,4.6
	c-0.1,0.1-0.3,0.2-0.4,0.2c-0.1,0-0.3-0.1-0.4-0.2l-1.9-1.9c-0.2-0.2-0.2-0.6,0-0.9c0.2-0.2,0.6-0.2,0.9,0l1.5,1.5l4.1-4.1
	C-218.4,367-218,367-217.7,367.2z M-217.7,378.5c0.2,0.2,0.2,0.6,0,0.9l-4.6,4.6c-0.1,0.1-0.3,0.2-0.4,0.2c-0.1,0-0.3-0.1-0.4-0.2
	l-2-2c-0.2-0.2-0.2-0.6,0-0.9c0.2-0.2,0.6-0.2,0.9,0l1.5,1.5l4.1-4.1C-218.4,378.2-218,378.2-217.7,378.5z M-217.7,389.4
	c0.2,0.2,0.2,0.6,0,0.9l-4.6,4.6c-0.1,0.1-0.3,0.2-0.4,0.2c-0.1,0-0.3-0.1-0.4-0.2l-1.9-1.9c-0.2-0.2-0.2-0.6,0-0.9
	c0.2-0.2,0.6-0.2,0.9,0l1.5,1.5l4.1-4.1C-218.4,389.1-218,389.1-217.7,389.4z M-217.7,400.3c0.2,0.2,0.2,0.6,0,0.9l-4.6,4.6
	c-0.1,0.1-0.3,0.2-0.4,0.2c-0.1,0-0.3-0.1-0.4-0.2l-1.9-1.9c-0.2-0.2-0.2-0.6,0-0.9c0.2-0.2,0.6-0.2,0.9,0l1.5,1.5l4.1-4.1
	C-218.4,400-218,400-217.7,400.3z M-217.7,411.2c0.2,0.2,0.2,0.6,0,0.9l-4.6,4.6c-0.1,0.1-0.3,0.2-0.4,0.2c-0.1,0-0.3-0.1-0.4-0.2
	l-1.9-1.9c-0.2-0.2-0.2-0.6,0-0.9c0.2-0.2,0.6-0.2,0.9,0l1.5,1.5l4.1-4.1C-218.4,410.9-218,410.9-217.7,411.2z M-217.7,422.2
	c0.2,0.2,0.2,0.6,0,0.9l-4.6,4.6c-0.1,0.1-0.3,0.2-0.4,0.2c-0.1,0-0.3-0.1-0.4-0.2l-1.9-1.9c-0.2-0.2-0.2-0.6,0-0.9
	c0.2-0.2,0.6-0.2,0.9,0l1.5,1.5l4.1-4.1C-218.4,422-218,422-217.7,422.2z"/>
</svg>
