<?xml version="1.0" encoding="utf-8"?>
<!-- Generator: Adobe Illustrator 18.0.0, SVG Export Plug-In . SVG Version: 6.00 Build 0)  -->
<!DOCTYPE svg PUBLIC "-//W3C//DTD SVG 1.1//EN" "http://www.w3.org/Graphics/SVG/1.1/DTD/svg11.dtd">
<svg version="1.1" id="Layer_1" xmlns="http://www.w3.org/2000/svg" xmlns:xlink="http://www.w3.org/1999/xlink" x="0px" y="0px"
	 viewBox="0 0 174.1 174.1" enable-background="new 0 0 174.1 174.1" xml:space="preserve">
<circle fill="none" stroke="#00e1bf" stroke-width="2" stroke-miterlimit="10" cx="87.1" cy="87.1" r="86.1"/>
<g>
	<defs>
		<circle id="SVGID_1_" cx="87.1" cy="87.1" r="86.1"/>
	</defs>
	<clipPath id="SVGID_2_">
		<use xlink:href="#SVGID_1_"  overflow="visible"/>
	</clipPath>
	<g clip-path="url(#SVGID_2_)">
		<path fill="none" stroke="#00e1bf" stroke-width="2" stroke-linecap="round" stroke-linejoin="round" stroke-miterlimit="10" d="
			M119.9,162.2c0,0-32.8,1.5-32.8,41.4c0,11.1,36.2,36.2,36.2,36.2l-35,39.3l10.9,0l42.7-42.7L124.1,222c0,0-11.1-7.6,7.1-20.7
			s21.2-30,8.1-42.6s-54-53.2-54-53.2s46.4-2.5,28-49.7"/>
		<path fill="none" stroke="#00e1bf" stroke-width="2" stroke-linecap="round" stroke-linejoin="round" stroke-miterlimit="10" d="
			M27.7,129.1c-2.2-7.7-2.3-16.3,0.6-23.6c11.1-27.2,66.3-33.8,54.5-33s-16.4-5.3-16.4-5.3s-12.9,0.3-16.1-0.8s-3.8-14.6-3.8-14.6
			L63.1,50c0,0,0.5-0.1,1-1.4S74.9,41,76,40.2c1-0.8,15-0.9,16.1-0.3c3.3,1.6,8.1,4.3,8.1,4.3l2.2-0.7c0,0,29-1.7,26,3.7
			c-5.7,10.2-17.8,8.8-23.2,8.4"/>
		<path fill="none" stroke="#00e1bf" stroke-width="2" stroke-linecap="round" stroke-linejoin="round" stroke-miterlimit="10" d="
			M91.1,182.5c-24.2-9.3-42.4-21.7-53.5-35.6"/>
		<path fill="none" stroke="#00e1bf" stroke-width="2" stroke-linecap="round" stroke-linejoin="round" stroke-miterlimit="10" d="
			M63.1,168.8c0,0-23.4,17.9-11.3,40.6c8.1,15.1,34,30,34,30L50.7,279l9.5,0l43.2-43.2l-18.9-15.9c0,0-4.7-5.8,3.5-11.3"/>
		<path fill="none" stroke="#00e1bf" stroke-width="2" stroke-linecap="round" stroke-linejoin="round" stroke-miterlimit="10" d="
			M68.9,118.1c0,4,4.5,28.7-30,28.7c-36.1,0-56.4,0-56.4,0v-7.6l45.2-10.2l-25-19.3L2.6,98.3l25.7,7.1"/>
		<path fill="none" stroke="#00e1bf" stroke-width="2" stroke-miterlimit="10" d="M87.4,39.6c0,0,14.3-20.7,44.1-27.7
			s26.7-10,27.6-11.4c0.9-1.4,0,9.9-21.6,14.5s-40,27.6-40,27.6"/>
		<path fill="none" stroke="#00e1bf" stroke-width="2" stroke-miterlimit="10" d="M87.4,39.6c0,0,14.3-20.7,44.1-27.7
			s26.7-10,27.6-11.4c0.9-1.4,0,9.9-21.6,14.5s-40,27.6-40,27.6"/>
		<path fill="none" stroke="#00e1bf" stroke-width="2" stroke-miterlimit="10" d="M173.8,161.4c-2.6,1.6-5.6,1.3-8.9,1
			c-2.9-0.3-6.3-0.6-10,0.4c-3.7,0.9-6,3.4-6.8,7.4c-0.2,1.2-0.3,2.4-0.3,3.4c1.7-1.9,5.6-4.2,15.2-3.9c4.2,0.1,7.3-0.9,9-3
			C173.5,165,173.8,162.8,173.8,161.4z"/>
		
			<line fill="none" stroke="#00e1bf" stroke-width="2" stroke-linecap="round" stroke-linejoin="round" stroke-miterlimit="10" x1="95.9" y1="129.6" x2="107.8" y2="141.5"/>
		
			<line fill="none" stroke="#00e1bf" stroke-width="2" stroke-linecap="round" stroke-linejoin="round" stroke-miterlimit="10" x1="111.3" y1="145.2" x2="114.5" y2="148.4"/>
		
			<line fill="none" stroke="#00e1bf" stroke-width="2" stroke-linecap="round" stroke-linejoin="round" stroke-miterlimit="10" x1="118.3" y1="152.2" x2="118.7" y2="152.7"/>
	</g>
</g>
</svg>
