<?xml version="1.0" encoding="utf-8"?>
<!-- Generator: Adobe Illustrator 18.0.0, SVG Export Plug-In . SVG Version: 6.00 Build 0)  -->
<!DOCTYPE svg PUBLIC "-//W3C//DTD SVG 1.1//EN" "http://www.w3.org/Graphics/SVG/1.1/DTD/svg11.dtd">
<svg version="1.1" id="Layer_1" xmlns="http://www.w3.org/2000/svg" xmlns:xlink="http://www.w3.org/1999/xlink" x="0px" y="0px"
	 viewBox="0 0 174.1 174.1" enable-background="new 0 0 174.1 174.1" xml:space="preserve">
<g>
	<path fill="#00e1bf" d="M87.1,0C39.1,0,0,39.1,0,87.1s39.1,87.1,87.1,87.1c48,0,87.1-39.1,87.1-87.1S135.1,0,87.1,0z M62.6,121.1
		L62.6,121.1C62.6,121.1,62.6,121.1,62.6,121.1c4-3.6,7.9-7.2,11.7-10.8c3.3-3.1,6.6-6.2,10-9.2l0.1,0.4c1.3,4.5,2.6,9.2,3.7,13.8
		c3.9,15.6,8,38.3-1.1,56.8c-14,0-27.2-3.4-38.9-9.5c3.1-2.8,6.4-5.8,9.7-8.8c3.7-3.3,7.3-6.7,10.8-9.8l-1.3-1.5
		c-3.4,3.1-7.1,6.5-10.8,9.8c-3.5,3.1-6.9,6.3-10.2,9.3c-5.7-3.1-11-6.9-15.8-11.2c4.8-5.6,11-10.8,16.9-15.9c2.1-1.8,4-3.4,6-5.1
		C56.4,126.7,59.5,123.9,62.6,121.1z M121.9,78.3c-1.4-2.2-2-3.7-2.3-4.5c0.8-0.1,2-0.1,3.3-0.1c1.6,0,3,0.1,4.1,0.3
		C125.8,75.6,123.7,77.9,121.9,78.3z M122.9,71.7c-1.4,0-2.7,0.1-3.6,0.1c0-1.6,0.3-4.6,2.2-6.6c1.2-1.3,2.8-1.9,4.9-1.9
		c1.7,0,3,0.5,3.9,1.7c1.9,2.3,1.8,6.4,1.6,8.7c-0.6-0.4-1.2-0.7-1.8-1C128.5,72,126.1,71.7,122.9,71.7z M120,63.9
		c-3,3.3-2.7,8.6-2.6,9c0,0.5,0.3,2.4,3.1,7c0.1,0.2,1.3,2.2,7,9.5c-2.8-0.8-5.9-0.8-8.8-0.9c-2.2-0.1-4.5-0.1-6.7-0.5
		c-9.2-1.6-15-4.8-17.9-9.8c-2.6-4.5-2.1-9.8-1.2-13.5l0.1-0.3c0.6-2.5,1.7-7.1,3.6-8.8c1.2-1.1,5.3-0.8,8-0.6
		c1.1,0.1,2.1,0.2,2.8,0.2l17.7,0l0.8,6.1C123.5,61.5,121.5,62.3,120,63.9z M107.4,53.2c-0.7,0-1.7-0.1-2.7-0.2
		c-3.4-0.3-7.6-0.7-9.5,1.1c-2.3,2.1-3.4,6.9-4.1,9.8L91,64.2c-1,4-1.5,9.8,1.4,14.9c0.1,0.2,0.2,0.3,0.3,0.5l-5.2-2.7
		c-0.3-0.2-0.8-0.1-1.1,0.1L74,86.6l-5.8-6.2c-0.4-0.4-1-0.4-1.4-0.1l-9.9,8.5c-1.2-8-4.2-42.1,26.9-52.7c4.9-1.7,8.6-2.2,15-2.2
		c2.4,0,3-3.8,3.2-6.5c8.7,3.4,12,6.7,13.9,8.6c0.2,0.2,0.5,0.4,0.7,0.6c7,6.5,7.8,12.7,8.2,16l0.1,0.5L107.4,53.2z M67.4,82.5
		l5.7,6.2c0.4,0.4,0.9,0.4,1.3,0.1L87.1,79l9.3,4.8c3.6,2.9,8.6,5,15.3,6.1c2.3,0.4,4.7,0.5,7,0.5c3,0.1,5.8,0.1,8.5,0.9
		c1.1,0.3,2.1,0.8,3,1.3c0.1,0.1,0.2,0.2,0.3,0.4l0.1-0.1c3.8,2.6,5.9,7.1,6.7,11.1c3.4,17.5-7.2,37.3-14.9,51.8
		c-1.4,2.5-3.3,5.7-5,8.6c-0.6,1-1.2,1.9-1.7,2.8c-8.3,3-17.2,4.7-26.4,4.9c8.8-18.9,4.7-41.6,0.8-57.3c-1.2-4.6-2.5-9.3-3.7-13.8
		L85.8,99c-0.1-0.3-0.4-0.6-0.7-0.7c-0.3-0.1-0.7,0-1,0.2c-3.8,3.4-7.5,6.9-11.2,10.3c-2.8,2.5-5.5,5.1-8.4,7.7
		c4.1-12.4,0.7-28.2-0.1-31.5L67.4,82.5z M118.7,166c0.1-0.2,0.2-0.4,0.4-0.6c1.7-2.8,3.6-6.1,5-8.6c7.9-14.7,18.6-34.9,15.1-53.1
		c-0.9-4.4-3.3-9.6-7.7-12.5c-5.1-6.4-7.4-9.6-8.5-11.1c2.7-1,5.1-4.2,6.1-5.6c0.1,0,0.1,0.1,0.2,0.1c1,0.4,1.9,1.1,2.6,1.8
		c0.2,0.2,0.5,0.3,0.7,0.3c0.1,0,0.2,0,0.3,0c0.4-0.1,0.6-0.4,0.7-0.8c0.1-0.3,1.5-8.1-1.8-12.1c-1-1.2-2.3-2-3.9-2.3l-0.9-6.9
		c0-0.2,0-0.6-0.1-1.3l-0.1-0.7c-0.5-3.6-1.3-10.2-8.8-17.2c-0.2-0.2-0.4-0.4-0.6-0.6c-2.1-2-5.9-5.8-15.9-9.5
		c-0.3-0.1-0.7-0.1-0.9,0.1c-0.3,0.2-0.4,0.5-0.4,0.8c0,3-0.7,5.8-1.2,5.9c-6.7,0-10.5,0.6-15.6,2.3C46.3,46.8,55.1,90.6,55.2,91
		c0.1,0.3,0.3,0.6,0.7,0.7c0.1,0,0.2,0.1,0.3,0.1c0.2,0,0.5-0.1,0.7-0.2l5.9-5c1.1,5.2,4.2,22.3-1.7,33.3c-3,2.7-6,5.5-9.1,8.1
		c-1.9,1.7-3.9,3.3-5.9,5.1c-6,5.1-12.2,10.4-17.1,16C12.4,133.5,2,111.5,2,87.1C2,40.2,40.2,2,87.1,2s85.1,38.2,85.1,85.1
		C172.1,122.8,150,153.4,118.7,166z"/>
	<path fill="#00e1bf" d="M128.7,110.3c2.4,0,4.3-1.9,4.3-4.3h-2c0,1.3-1,2.3-2.3,2.3s-2.3-1-2.3-2.3h-2
		C124.4,108.4,126.3,110.3,128.7,110.3z"/>
	<path fill="#848484" d="M117.5,126.7c2.4,0,4.3-1.9,4.3-4.3h-2c0,1.3-1,2.3-2.3,2.3s-2.3-1-2.3-2.3h-2
		C113.3,124.8,115.2,126.7,117.5,126.7z"/>
	<path fill="#00e1bf" d="M103.7,110.8c2.4,0,4.3-1.9,4.3-4.3h-2c0,1.3-1,2.3-2.3,2.3s-2.3-1-2.3-2.3h-2
		C99.5,108.9,101.4,110.8,103.7,110.8z"/>
	<path fill="#00e1bf" d="M105.1,137.3h-2c0,2.4,1.9,4.3,4.3,4.3s4.3-1.9,4.3-4.3h-2c0,1.3-1,2.3-2.3,2.3S105.1,138.6,105.1,137.3z"
		/>
</g>
</svg>
