<?xml version="1.0" encoding="utf-8"?>
<!-- Generator: Adobe Illustrator 18.0.0, SVG Export Plug-In . SVG Version: 6.00 Build 0)  -->
<!DOCTYPE svg PUBLIC "-//W3C//DTD SVG 1.1//EN" "http://www.w3.org/Graphics/SVG/1.1/DTD/svg11.dtd">
<svg version="1.1" id="Layer_1" xmlns="http://www.w3.org/2000/svg" xmlns:xlink="http://www.w3.org/1999/xlink" x="0px" y="0px"
	 viewBox="-243 366.7 76.5 63.9" enable-background="new -243 366.7 76.5 63.9" xml:space="preserve">
<path fill="#00e1bf" d="M-167.5,385.1l-17.5-17.5c-1.2-1.2-3.4-1.2-4.6,0l-8.5,8.5l-7.1,7.1l-5.8-5.7c0,0-0.1,0-0.1-0.1v-0.1l-8.6-8.6
	c-1.3-1.3-3.5-1.3-4.8,0l-17.5,17.4c-1.3,1.3-1.3,3.5,0,4.8l8.6,8.6c0,0,0,0,0.1,0c0,0,0,0.1,0.1,0.1l9,9l-1.2,1.2
	c-0.1,0.1-0.2,0.2-0.2,0.4l-0.2,0.2c-0.6,0.6-0.9,1.4-0.9,2.3s0.3,1.7,0.9,2.3l14.3,14.3c0.6,0.6,1.4,0.9,2.3,0.9
	c0.9,0,1.7-0.3,2.3-0.9l1.7-1.7l2.3,2.3c0.4,0.3,1,0.7,1.8,0.7l0,0c0.8,0,1.5-0.4,2.2-1.1l14.2-14.2c2.2-2.2,0.8-4.2,0.3-4.7
	l-1.9-1.9l10.3-10.4l8.5-8.5c0.6-0.6,1-1.4,1-2.3C-166.5,386.6-166.9,385.7-167.5,385.1z M-241.1,387l17.4-17.4
	c0.4-0.4,1-0.6,1.5-0.6c0.6,0,1.1,0.2,1.5,0.6l8.2,8.2l-20.4,20.5l-8.2-8.2C-241.9,389.2-241.9,387.8-241.1,387z M-207.9,428.4
	c-0.7,0.7-2,0.7-2.8,0l-14.2-14.3c-0.4-0.4-0.6-0.9-0.6-1.4s0.2-1,0.6-1.4l0.5-0.5l1.6-1.6l1.6-1.6c0.7-0.7,2-0.7,2.7,0
	c0,0,0,0,0.1,0l14.3,14.3c0.1,0.1,0.2,0.2,0.2,0.3c0,0,0,0,0,0.1c0.1,0.1,0.1,0.2,0.1,0.3c0,0,0,0,0,0.1s0.1,0.2,0.1,0.3
	c0,0,0,0,0,0.1c0,0.2,0,0.4,0,0.6l0,0c0,0.1-0.1,0.2-0.1,0.3l0,0c0,0.1-0.1,0.2-0.1,0.3c0,0,0,0,0,0.1c-0.1,0.1-0.2,0.2-0.2,0.3
	l-1.6,1.6L-207.9,428.4z M-185.7,414.5l-14.2,14.2c-0.5,0.5-0.9,0.7-1.3,0.7l0,0c-0.4,0-0.8-0.2-1-0.4l-2.3-2.3l1.2-1.2
	c0.2-0.2,0.3-0.3,0.4-0.5c0,0,0-0.1,0.1-0.1c0.1-0.1,0.2-0.3,0.2-0.5v-0.1c0.1-0.2,0.1-0.3,0.1-0.5c0-0.1,0-0.2,0-0.2
	c0-0.1,0-0.2,0-0.4c0-0.1,0-0.2,0-0.3c0-0.1,0-0.2,0-0.3c0-0.2-0.1-0.3-0.1-0.5V422c-0.1-0.2-0.1-0.3-0.2-0.4c0,0,0-0.1-0.1-0.1
	c-0.1-0.2-0.3-0.3-0.4-0.5l-14.2-14.3c-0.2-0.2-0.3-0.3-0.5-0.4l0,0c0,0-0.1,0-0.1-0.1c-0.3-0.2-0.7-0.3-1-0.4c-0.1,0-0.2,0-0.2,0
	c-0.1,0-0.3,0-0.4,0c-0.1,0-0.2,0-0.4,0c-0.1,0-0.2,0-0.3,0c-0.2,0-0.3,0.1-0.5,0.1h-0.1c-0.4,0.2-0.7,0.4-1,0.7l-1.2,1.2l-8.6-8.6
	l20.5-20.5l5.3,5.3l-10.9,10.9c-0.7,0.7-1.5,2.3,0,3.8l3.9,3.9c0.1,0.1,0.2,0.2,0.3,0.3c0.1,0,0.1,0.1,0.2,0.1
	c0.1,0,0.1,0.1,0.2,0.1c0.1,0,0.2,0.1,0.3,0.1c0.1,0,0.1,0,0.2,0.1c0.2,0,0.3,0.1,0.5,0.1l0,0l0,0l0,0c0.2,0,0.3,0,0.5-0.1
	c0.1,0,0.2-0.1,0.3-0.1c0.1,0,0.1,0,0.2-0.1c0.1-0.1,0.2-0.1,0.3-0.2l0.1-0.1c0.2-0.1,0.3-0.2,0.5-0.4l7.4-7.4l14.1,14.1l0,0
	l2.3,2.3C-184.8,412.1-184.4,413.2-185.7,414.5z M-187.3,407.8l-13.7-13.7l2.5-2.5c0.2-0.2,0.2-0.6,0-0.9c-0.2-0.2-0.6-0.2-0.9,0
	l-3,3l-7.8,7.8c-0.1,0.1-0.2,0.2-0.3,0.2l-0.1,0.1c0,0-0.1,0-0.1,0.1c0,0-0.1,0-0.1,0.1h-0.1h-0.1c-0.1,0-0.1,0-0.2,0l0,0
	c-0.3,0-0.5-0.1-0.7-0.3c-0.1,0-0.1-0.1-0.2-0.1l-3.9-3.8c-0.9-0.9-0.3-1.8,0-2.1l11.2-11.2l7.1-7.1l4.5,4.5l15.9,15.9L-187.3,407.8
	z M-168.4,388.8l-8.1,8.1l-8.8-8.8l-11.5-11.5l8.1-8.1c0.8-0.8,2.1-0.8,2.8,0l17.5,17.5c0.4,0.4,0.6,0.9,0.6,1.4
	C-167.8,388-168,388.5-168.4,388.8z"/>
</svg>
