<?xml version="1.0" encoding="utf-8"?>
<!-- Generator: Adobe Illustrator 18.0.0, SVG Export Plug-In . SVG Version: 6.00 Build 0)  -->
<!DOCTYPE svg PUBLIC "-//W3C//DTD SVG 1.1//EN" "http://www.w3.org/Graphics/SVG/1.1/DTD/svg11.dtd">
<svg version="1.1" id="Layer_1" xmlns="http://www.w3.org/2000/svg" xmlns:xlink="http://www.w3.org/1999/xlink" x="0px" y="0px"
	 viewBox="-228.9 356.8 45.7 79.9" enable-background="new -228.9 356.8 45.7 79.9" xml:space="preserve">
<path fill="#00e1bf" d="M-186.4,356.8h-39.3c-1.7,0-3.2,1.4-3.2,3.2v73.5c0,1.7,1.4,3.2,3.2,3.2h39.3c1.7,0,3.2-1.4,3.2-3.2V360
	C-183.2,358.2-184.6,356.8-186.4,356.8z M-227.6,368.6h43.2v53.9h-43.2V368.6z M-225.7,358h39.3c1.1,0,1.9,0.9,1.9,1.9v7.4h-43.1
	V360C-227.6,358.9-226.8,358-225.7,358z M-186.4,435.5h-39.3c-1.1,0-1.9-0.9-1.9-1.9v-9.7h43.2v9.7
	C-184.4,434.6-185.3,435.5-186.4,435.5z M-205.8,429.3c0.1,0.1,0.2,0.3,0.2,0.4c0,0.2-0.1,0.3-0.2,0.4c-0.1,0.1-0.3,0.2-0.4,0.2
	c-0.2,0-0.3-0.1-0.4-0.2c-0.1-0.1-0.2-0.3-0.2-0.4c0-0.2,0.1-0.3,0.2-0.4C-206.5,429.1-206,429.1-205.8,429.3z"/>
</svg>
