<?xml version="1.0" encoding="utf-8"?>
<!-- Generator: Adobe Illustrator 18.0.0, SVG Export Plug-In . SVG Version: 6.00 Build 0)  -->
<!DOCTYPE svg PUBLIC "-//W3C//DTD SVG 1.1//EN" "http://www.w3.org/Graphics/SVG/1.1/DTD/svg11.dtd">
<svg version="1.1" id="Layer_1" xmlns="http://www.w3.org/2000/svg" xmlns:xlink="http://www.w3.org/1999/xlink" x="0px" y="0px"
	 viewBox="-243.1 359.5 75.7 74.7" enable-background="new -243.1 359.5 75.7 74.7" xml:space="preserve">
<path fill="#00e1bf" d="M-167.5,393.8c-0.3-1.7-0.6-3.5-0.9-5.2c0-0.2-0.2-0.4-0.3-0.6c-1.3-1.4-2.9-2.1-4.8-2.1c-2,0-3.5-0.8-4.6-2.5
	c-0.5-0.8-1-1.6-1.4-2.4c-0.8-1.6-0.9-3.2,0.1-4.8c0.6-1.1,1.1-2.2,1.1-3.5h0.1c-0.1-0.7-0.3-1.4-0.4-2.1c0-0.2-0.2-0.4-0.3-0.5
	c-1.3-1.1-2.6-2.2-3.9-3.3c-0.1-0.1-0.3-0.2-0.5-0.2c-1.9-0.3-3.7,0.1-5.1,1.4c-1.7,1.5-3.5,1.8-5.6,0.9c-0.6-0.2-1.1-0.4-1.7-0.6
	c-2.1-0.7-3.3-2.1-3.6-4.3c-0.3-1.9-1.3-3.4-3-4.3c-0.2-0.1-0.4-0.2-0.6-0.2c-1.7,0-3.3,0-5,0c-0.2,0-0.4,0.1-0.6,0.2
	c-1.7,1-2.7,2.5-3,4.5c-0.3,2-1.4,3.4-3.3,4.1c-0.7,0.3-1.5,0.5-2.2,0.8c-0.8,0.3-1.7,0.4-2.6,0.3c-1.1-0.2-1.9-0.7-2.7-1.4
	c-1.5-1.3-3.2-1.7-5.1-1.4c-0.2,0-0.3,0.1-0.4,0.2c-1.3,1.1-2.6,2.2-3.9,3.3c-0.1,0.1-0.2,0.2-0.2,0.4c-0.7,1.9-0.5,3.6,0.5,5.3
	c1.1,1.9,1.1,3.8-0.1,5.6c-0.3,0.5-0.6,1.1-0.9,1.6c-0.3,0.5-0.7,1-1.1,1.5c-1,1-2.2,1.3-3.6,1.3c-1.8,0-3.3,0.6-4.5,1.8
	c-0.3,0.3-0.6,0.6-0.6,1c-0.2,1.4-0.5,2.8-0.8,4.2c-0.1,0.6-0.1,1.2,0.2,1.8c0.8,1.5,1.9,2.6,3.5,3.1c2,0.7,3.2,2,3.5,4
	c0.1,0.8,0.3,1.5,0.4,2.3c0.1,0.6,0.1,1.2,0,1.8c-0.2,1.3-0.9,2.4-1.9,3.2c-1.3,1-2,2.4-2.2,4c-0.1,0.4-0.1,0.8,0.1,1.2
	c0.8,1.7,1.7,3.2,2.7,4.7c0.1,0.2,0.3,0.3,0.5,0.4c1.6,0.8,3.3,0.9,5,0.3c2.1-0.8,3.9-0.4,5.5,1c0.4,0.4,0.9,0.8,1.4,1.1
	c1.7,1.4,2.4,3.1,2,5.2c-0.4,1.8,0,3.5,1.1,5c0.1,0.1,0.2,0.3,0.4,0.3c1.7,0.8,3.5,1.4,5.3,1.9c0.2,0,0.4,0.1,0.6,0
	c1.8-0.4,3.1-1.4,4-3c0.9-1.7,2.4-2.7,4.3-2.8c0.8,0,1.5,0,2.3,0c0.8,0,1.5,0.1,2.2,0.3c1.2,0.4,2.1,1.3,2.7,2.5
	c0.8,1.5,2.1,2.5,3.8,3c0.3,0.1,0.6,0.1,0.8,0c1.8-0.5,3.5-1.1,5.1-1.9c0.2-0.1,0.4-0.3,0.6-0.5c0.9-1.3,1.3-2.8,1.1-4.4
	c-0.1-0.5-0.2-0.9-0.2-1.4c-0.1-1.5,0.4-2.8,1.5-3.8c0.6-0.6,1.3-1.1,1.9-1.6c1.6-1.5,3.5-1.9,5.6-1c1.7,0.7,3.4,0.6,5.1-0.3
	c0.2-0.1,0.3-0.2,0.4-0.4c0.9-1.5,1.8-3.1,2.7-4.6c0.1-0.2,0.2-0.5,0.2-0.8c0-0.3-0.1-0.7-0.1-1c-0.3-1.6-1.3-2.7-2.5-3.7
	c-1.1-0.9-1.7-2.1-1.7-3.4c0-0.9,0.2-1.8,0.3-2.7c0.1-0.6,0.2-1.3,0.4-1.9c0.5-1.6,1.7-2.6,3.3-3.1c1.8-0.6,3-1.8,3.7-3.6
	C-167.6,394.1-167.5,393.9-167.5,393.8z M-168.9,394.1c-0.6,1.3-1.6,2.2-2.9,2.6c-2.6,0.9-4,2.7-4.4,5.4c-0.1,0.8-0.3,1.6-0.4,2.4
	c-0.3,2.3,0.5,4.2,2.3,5.7c1.1,0.9,1.8,2.1,1.9,3.5c0,0.1,0,0.3-0.1,0.4c-0.8,1.4-1.6,2.8-2.4,4.1c-0.1,0.1-0.2,0.2-0.3,0.3
	c-1.2,0.6-2.5,0.6-3.8,0.1c-2.5-1-4.8-0.6-6.8,1.2c-0.7,0.6-1.4,1.1-2,1.7c-1.7,1.6-2.2,3.6-1.8,5.8c0.3,1.3,0,2.6-0.7,3.7
	c-0.1,0.1-0.2,0.2-0.3,0.3c-1.5,0.6-3.1,1.1-4.6,1.7c-0.1,0.1-0.3,0-0.5,0c-1.3-0.4-2.3-1.2-2.9-2.4c-1.2-2.1-2.9-3.3-5.3-3.3
	c-1.3,0-2.5-0.1-3.8,0.1c-1.8,0.2-3.2,1.2-4.2,2.7c-0.4,0.6-0.7,1.3-1.3,1.8c-0.6,0.5-1.3,0.9-2,1.2c-0.1,0-0.3,0-0.4,0
	c-1.6-0.6-3.1-1.1-4.7-1.7c-0.1,0-0.2-0.1-0.3-0.3c-0.7-1.1-1-2.4-0.7-3.7c0.5-2.6-0.3-4.8-2.4-6.5c-0.5-0.4-1-0.8-1.5-1.3
	c-1.8-1.5-3.8-2-6.1-1.3c-0.6,0.2-1.3,0.4-1.9,0.5c-0.9,0.1-1.7-0.1-2.5-0.4c-0.1-0.1-0.3-0.2-0.4-0.3c-0.8-1.3-1.5-2.6-2.3-3.9
	c-0.2-0.3-0.2-0.6-0.1-0.9c0.2-1.3,0.9-2.3,1.9-3.2c1.2-0.9,2-2.1,2.3-3.6c0.2-0.8,0.2-1.6,0-2.3c-0.2-1.1-0.3-2.2-0.6-3.3
	c-0.6-2.1-2-3.5-4.1-4.2c-1.4-0.5-2.4-1.4-3-2.7c-0.1-0.1-0.1-0.3-0.1-0.5c0.3-1.5,0.5-3,0.8-4.5c0-0.1,0.1-0.2,0.2-0.3
	c1.1-1.1,2.4-1.5,3.9-1.5c2.2,0,4-0.9,5.3-2.8c0.6-0.9,1.2-1.9,1.7-2.9c1.1-2.1,0.9-4.2-0.3-6.2c-0.8-1.3-0.9-2.6-0.5-4
	c0-0.2,0.1-0.3,0.3-0.4c1.1-0.9,2.2-1.8,3.2-2.7c0.2-0.2,0.5-0.3,0.8-0.3c1.4-0.1,2.6,0.3,3.6,1.2c2,1.8,4.3,2.1,6.7,1.2
	c0.6-0.2,1.3-0.5,1.9-0.7c2.4-0.9,3.9-2.6,4.3-5.2c0.2-1.5,1-2.7,2.3-3.5c0.1-0.1,0.2-0.1,0.4-0.1c1.5,0,2.9,0,4.4,0
	c0.1,0,0.3,0.1,0.4,0.1c1.3,0.8,2,2,2.3,3.6c0.4,2.5,1.8,4.2,4.2,5c1,0.4,2,0.8,3,1c1.9,0.5,3.6,0.1,5.2-1.1c0.5-0.4,1-0.8,1.5-1.1
	c0.9-0.5,1.9-0.7,2.9-0.5c0.1,0,0.3,0.1,0.4,0.1c1.1,0.9,2.2,1.9,3.4,2.8c0.4,0.3,0.4,0.8,0.4,1.2c0.2,1.2-0.1,2.3-0.8,3.4
	c-1,1.6-1.3,3.4-0.6,5.1c0.6,1.7,1.5,3.2,2.6,4.6c1.1,1.3,2.5,1.9,4.2,2c0.1,0,0.3,0,0.4,0c1.5-0.1,2.9,0.4,3.9,1.5
	c0.1,0.1,0.2,0.2,0.2,0.4c0.3,1.5,0.5,3,0.8,4.5C-168.8,393.7-168.8,393.9-168.9,394.1z M-205.5,379.3c-10.2,0-18.3,8.2-18.4,18.3
	c-0.1,10,8.1,18.3,18.2,18.4c10.1,0.1,18.4-8.1,18.5-18.2C-187.1,387.7-195.3,379.4-205.5,379.3z M-205.5,414.8
	c-9.6,0-17.2-7.9-17.1-17.2c0.1-9.3,7.7-17,17.3-17c9.4,0.1,17,7.8,16.9,17.3C-188.5,407.1-196,414.7-205.5,414.8z"/>
</svg>
