<?xml version="1.0" encoding="utf-8"?>
<!-- Generator: Adobe Illustrator 18.0.0, SVG Export Plug-In . SVG Version: 6.00 Build 0)  -->
<!DOCTYPE svg PUBLIC "-//W3C//DTD SVG 1.1//EN" "http://www.w3.org/Graphics/SVG/1.1/DTD/svg11.dtd">
<svg version="1.1" id="Layer_1" xmlns="http://www.w3.org/2000/svg" xmlns:xlink="http://www.w3.org/1999/xlink" x="0px" y="0px"
	 viewBox="-242 359.3 73.8 73.8" enable-background="new -242 359.3 73.8 73.8" xml:space="preserve">
<path fill="#fff" d="M-205.1,433.1c20.3,0,36.9-16.6,36.9-36.9c0-20.3-16.5-36.9-36.9-36.9c-20.3,0-36.9,16.5-36.9,36.9
	C-242,416.5-225.5,433.1-205.1,433.1z M-205.1,360.5c19.7,0,35.6,16,35.6,35.6c0,19.7-16,35.6-35.6,35.6s-35.6-16-35.6-35.6
	C-240.8,376.5-224.8,360.5-205.1,360.5z M-223.3,396.2c0-0.3,0.3-0.6,0.6-0.6h32.2l-12.5-12.5c-0.2-0.2-0.2-0.6,0-0.9
	c0.1-0.1,0.3-0.2,0.4-0.2s0.3,0.1,0.4,0.2l13.6,13.6c0.1,0.1,0.1,0.1,0.1,0.2s0,0.2,0,0.2l0,0l0,0c0,0.1,0,0.2,0,0.2
	c0,0.1-0.1,0.1-0.1,0.2l-13.7,13.7c-0.2,0.2-0.6,0.2-0.9,0c-0.2-0.2-0.2-0.6,0-0.9l12.7-12.6h-32.2
	C-223,396.8-223.3,396.5-223.3,396.2z"/>
</svg>
