<?xml version="1.0" encoding="utf-8"?>
<!-- Generator: Adobe Illustrator 18.0.0, SVG Export Plug-In . SVG Version: 6.00 Build 0)  -->
<!DOCTYPE svg PUBLIC "-//W3C//DTD SVG 1.1//EN" "http://www.w3.org/Graphics/SVG/1.1/DTD/svg11.dtd">
<svg version="1.1" id="Layer_1" xmlns="http://www.w3.org/2000/svg" xmlns:xlink="http://www.w3.org/1999/xlink" x="0px" y="0px"
	 viewBox="-242 359.3 73.8 73.8" enable-background="new -242 359.3 73.8 73.8" xml:space="preserve">
<path fill="#fff" d="M-205.1,359.3c-20.3,0-36.9,16.6-36.9,36.9c0,20.3,16.5,36.9,36.9,36.9c20.3,0,36.9-16.5,36.9-36.9
	C-168.2,375.9-184.7,359.3-205.1,359.3z M-205.1,431.9c-19.7,0-35.6-16-35.6-35.6c0-19.7,16-35.6,35.6-35.6s35.6,16,35.6,35.6
	C-169.4,415.9-185.4,431.9-205.1,431.9z M-186.9,396.2c0,0.3-0.3,0.6-0.6,0.6h-32.2l12.5,12.5c0.2,0.2,0.2,0.6,0,0.9
	c-0.1,0.1-0.3,0.2-0.4,0.2s-0.3-0.1-0.4-0.2l-13.6-13.6c-0.1-0.1-0.1-0.1-0.1-0.2s0-0.2,0-0.2l0,0l0,0c0-0.1,0-0.2,0-0.2
	c0-0.1,0.1-0.1,0.1-0.2l13.7-13.7c0.2-0.2,0.6-0.2,0.9,0c0.2,0.2,0.2,0.6,0,0.9l-12.7,12.6h32.2
	C-187.2,395.6-186.9,395.9-186.9,396.2z"/>
</svg>
