<?xml version="1.0" encoding="utf-8"?>
<!-- Generator: Adobe Illustrator 18.0.0, SVG Export Plug-In . SVG Version: 6.00 Build 0)  -->
<!DOCTYPE svg PUBLIC "-//W3C//DTD SVG 1.1//EN" "http://www.w3.org/Graphics/SVG/1.1/DTD/svg11.dtd">
<svg fill="#00e1bf" version="1.1" id="Isolation_Mode" xmlns="http://www.w3.org/2000/svg" xmlns:xlink="http://www.w3.org/1999/xlink" x="0px"
	 y="0px" viewBox="-241.3 362.9 72.5 69" enable-background="new -241.3 362.9 72.5 69" xml:space="preserve">
<path d="M-168.9,388.9c-0.2-0.6-0.8-1.7-2.7-2l-21.3-3.1l-9.3-18.8c-0.9-1.8-2-2.1-2.9-2.1c-1.8,0-2.8,1.8-3,2.1l-9.3,18.8l-21,3
	c-1.4,0.2-2.5,1-2.8,2.1c-0.4,1.2,0.1,2.4,1.3,3.6l15,14.5l-3.5,20.7c-0.1,0.5-0.4,2.1,0.6,3.2c0.8,1,2.2,1.2,3.7,0.5
	c0,0,0.1,0,0.1-0.1l18.9-10l18.9,10c0.7,0.4,1.4,0.6,2,0.6c0.8,0,1.4-0.3,1.9-0.8c0.4-0.4,0.8-1.2,0.6-2.7l-3.6-21.4l15.3-14.9
	C-168.7,390.8-168.7,389.7-168.9,388.9z"/>
</svg>
